<svg xmlns="http://www.w3.org/2000/svg" xmlns:xlink="http://www.w3.org/1999/xlink" width="60" zoomAndPan="magnify" viewBox="0 0 45 44.999999" height="60" preserveAspectRatio="xMidYMid meet" version="1.0"><path fill="#6571ff" d="M 22.5 0 C 21.761719 0 21.027344 0.0351562 20.292969 0.109375 C 19.5625 0.179688 18.832031 0.289062 18.109375 0.433594 C 17.386719 0.574219 16.671875 0.753906 15.96875 0.96875 C 15.261719 1.183594 14.570312 1.429688 13.890625 1.710938 C 13.207031 1.996094 12.542969 2.308594 11.894531 2.65625 C 11.242188 3.003906 10.613281 3.382812 10 3.792969 C 9.386719 4.203125 8.796875 4.640625 8.226562 5.105469 C 7.65625 5.574219 7.109375 6.070312 6.589844 6.589844 C 6.070312 7.109375 5.574219 7.65625 5.105469 8.226562 C 4.640625 8.796875 4.203125 9.386719 3.792969 10 C 3.382812 10.613281 3.003906 11.242188 2.65625 11.894531 C 2.308594 12.542969 1.996094 13.207031 1.710938 13.890625 C 1.429688 14.570312 1.183594 15.261719 0.96875 15.96875 C 0.753906 16.671875 0.574219 17.386719 0.433594 18.109375 C 0.289062 18.832031 0.179688 19.5625 0.109375 20.292969 C 0.0351562 21.027344 0 21.761719 0 22.5 C 0 23.238281 0.0351562 23.972656 0.109375 24.707031 C 0.179688 25.4375 0.289062 26.167969 0.433594 26.890625 C 0.574219 27.613281 0.753906 28.328125 0.96875 29.03125 C 1.183594 29.738281 1.429688 30.429688 1.710938 31.109375 C 1.996094 31.792969 2.308594 32.457031 2.65625 33.105469 C 3.003906 33.757812 3.382812 34.386719 3.792969 35 C 4.203125 35.613281 4.640625 36.203125 5.105469 36.773438 C 5.574219 37.34375 6.070312 37.890625 6.589844 38.410156 C 7.109375 38.929688 7.65625 39.425781 8.226562 39.894531 C 8.796875 40.359375 9.386719 40.796875 10 41.207031 C 10.613281 41.617188 11.242188 41.996094 11.894531 42.34375 C 12.542969 42.691406 13.207031 43.003906 13.890625 43.289062 C 14.570312 43.570312 15.261719 43.816406 15.96875 44.03125 C 16.671875 44.246094 17.386719 44.425781 18.109375 44.566406 C 18.832031 44.710938 19.5625 44.820312 20.292969 44.890625 C 21.027344 44.964844 21.761719 45 22.5 45 C 23.238281 45 23.972656 44.964844 24.707031 44.890625 C 25.4375 44.820312 26.167969 44.710938 26.890625 44.566406 C 27.613281 44.425781 28.328125 44.246094 29.03125 44.03125 C 29.738281 43.816406 30.429688 43.570312 31.109375 43.289062 C 31.792969 43.003906 32.457031 42.691406 33.105469 42.34375 C 33.757812 41.996094 34.386719 41.617188 35 41.207031 C 35.613281 40.796875 36.203125 40.359375 36.773438 39.894531 C 37.34375 39.425781 37.890625 38.929688 38.410156 38.410156 C 38.929688 37.890625 39.425781 37.34375 39.894531 36.773438 C 40.359375 36.203125 40.796875 35.613281 41.207031 35 C 41.617188 34.386719 41.996094 33.757812 42.34375 33.105469 C 42.691406 32.457031 43.003906 31.792969 43.289062 31.109375 C 43.570312 30.429688 43.816406 29.738281 44.03125 29.03125 C 44.246094 28.328125 44.425781 27.613281 44.566406 26.890625 C 44.710938 26.167969 44.820312 25.4375 44.890625 24.707031 C 44.964844 23.972656 45 23.238281 45 22.5 C 45 21.761719 44.964844 21.027344 44.890625 20.292969 C 44.820312 19.5625 44.710938 18.832031 44.566406 18.109375 C 44.421875 17.386719 44.246094 16.675781 44.03125 15.96875 C 43.816406 15.265625 43.570312 14.570312 43.285156 13.890625 C 43.003906 13.210938 42.691406 12.542969 42.34375 11.894531 C 41.996094 11.246094 41.617188 10.613281 41.207031 10 C 40.796875 9.386719 40.359375 8.796875 39.890625 8.226562 C 39.425781 7.65625 38.929688 7.113281 38.410156 6.589844 C 37.886719 6.070312 37.34375 5.574219 36.773438 5.109375 C 36.203125 4.640625 35.613281 4.203125 35 3.792969 C 34.386719 3.382812 33.753906 3.003906 33.105469 2.65625 C 32.457031 2.308594 31.789062 1.996094 31.109375 1.714844 C 30.429688 1.429688 29.734375 1.183594 29.03125 0.96875 C 28.324219 0.753906 27.613281 0.578125 26.890625 0.433594 C 26.167969 0.289062 25.4375 0.179688 24.707031 0.109375 C 23.972656 0.0351562 23.238281 0 22.5 0 Z M 22.5 8.4375 C 23.035156 8.4375 23.5625 8.5 24.082031 8.621094 C 24.601562 8.742188 25.101562 8.921875 25.582031 9.160156 C 26.058594 9.398438 26.503906 9.691406 26.914062 10.03125 C 27.328125 10.375 27.691406 10.757812 28.015625 11.1875 C 28.335938 11.613281 28.605469 12.070312 28.820312 12.558594 C 29.035156 13.050781 29.191406 13.558594 29.289062 14.082031 C 29.386719 14.609375 29.421875 15.140625 29.398438 15.671875 C 29.371094 16.207031 29.285156 16.730469 29.136719 17.246094 C 28.988281 17.757812 28.785156 18.25 28.523438 18.714844 C 28.261719 19.179688 27.949219 19.613281 27.585938 20.003906 C 27.226562 20.398438 26.824219 20.746094 26.382812 21.046875 C 25.941406 21.347656 25.46875 21.59375 24.96875 21.785156 C 24.46875 21.976562 23.957031 22.105469 23.425781 22.179688 C 22.894531 22.25 22.363281 22.257812 21.832031 22.207031 C 21.300781 22.15625 20.78125 22.042969 20.273438 21.871094 C 19.769531 21.699219 19.289062 21.46875 18.835938 21.183594 C 13.042969 17.515625 15.554688 8.507812 22.5 8.4375 Z M 30.59375 36.5625 L 14.40625 36.5625 C 14.070312 36.5625 13.742188 36.527344 13.414062 36.460938 C 13.085938 36.398438 12.765625 36.300781 12.457031 36.171875 C 12.148438 36.042969 11.851562 35.886719 11.574219 35.699219 C 11.296875 35.511719 11.039062 35.300781 10.804688 35.0625 C 10.566406 34.828125 10.355469 34.570312 10.167969 34.289062 C 9.984375 34.011719 9.824219 33.71875 9.699219 33.410156 C 9.570312 33.101562 9.472656 32.78125 9.40625 32.453125 C 9.34375 32.125 9.308594 31.792969 9.308594 31.457031 C 9.308594 27.132812 12.496094 23.398438 17.066406 21.71875 C 17.441406 22.039062 17.84375 22.320312 18.269531 22.570312 C 18.695312 22.816406 19.140625 23.027344 19.605469 23.195312 C 20.070312 23.367188 20.542969 23.496094 21.03125 23.582031 C 21.515625 23.667969 22.007812 23.710938 22.5 23.710938 C 22.992188 23.710938 23.484375 23.667969 23.96875 23.582031 C 24.457031 23.496094 24.929688 23.367188 25.394531 23.195312 C 25.859375 23.027344 26.304688 22.816406 26.730469 22.570312 C 27.15625 22.320312 27.558594 22.039062 27.933594 21.71875 C 32.503906 23.398438 35.691406 27.132812 35.691406 31.457031 C 35.691406 31.792969 35.65625 32.125 35.59375 32.453125 C 35.527344 32.78125 35.429688 33.101562 35.300781 33.410156 C 35.175781 33.71875 35.015625 34.011719 34.832031 34.289062 C 34.644531 34.570312 34.433594 34.828125 34.195312 35.0625 C 33.960938 35.300781 33.703125 35.511719 33.425781 35.699219 C 33.148438 35.886719 32.851562 36.042969 32.542969 36.171875 C 32.234375 36.300781 31.914062 36.398438 31.585938 36.460938 C 31.257812 36.527344 30.929688 36.5625 30.59375 36.5625 Z M 30.59375 36.5625 " fill-opacity="1" fill-rule="nonzero"/></svg>