<svg xmlns="http://www.w3.org/2000/svg" xmlns:xlink="http://www.w3.org/1999/xlink" width="500" zoomAndPan="magnify" viewBox="0 0 375 374.999991" height="500" preserveAspectRatio="xMidYMid meet" version="1.0"><defs><clipPath id="aaa6fa084e"><path d="M 77 51.964844 L 280 51.964844 L 280 309 L 77 309 Z M 77 51.964844 " clip-rule="nonzero"/></clipPath><clipPath id="31911aeac1"><path d="M 189 185 L 315.992188 185 L 315.992188 322.714844 L 189 322.714844 Z M 189 185 " clip-rule="nonzero"/></clipPath><clipPath id="1821a10bba"><path d="M 58.742188 152 L 137 152 L 137 322.714844 L 58.742188 322.714844 Z M 58.742188 152 " clip-rule="nonzero"/></clipPath></defs><rect x="-37.5" width="450" fill="#ffffff" y="-37.499999" height="449.999989" fill-opacity="1"/><rect x="-37.5" width="450" fill="#ffffff" y="-37.499999" height="449.999989" fill-opacity="1"/><g clip-path="url(#aaa6fa084e)"><path fill="#7950ea" d="M 269.984375 51.964844 L 86.394531 51.964844 C 81.324219 51.964844 77.214844 56.074219 77.214844 61.144531 L 77.214844 299.769531 C 77.214844 304.839844 81.324219 308.949219 86.394531 308.949219 L 269.984375 308.949219 C 275.050781 308.949219 279.164062 304.839844 279.164062 299.769531 L 279.164062 61.144531 C 279.164062 56.074219 275.050781 51.964844 269.984375 51.964844 " fill-opacity="1" fill-rule="nonzero"/></g><path fill="#8b74f7" d="M 95.574219 70.320312 L 95.574219 290.59375 L 260.804688 290.59375 L 260.804688 70.320312 L 95.574219 70.320312 " fill-opacity="1" fill-rule="nonzero"/><path fill="#f9cb58" d="M 242.445312 93.265625 L 173.597656 93.265625 L 173.597656 84.089844 L 242.445312 84.089844 L 242.445312 93.265625 " fill-opacity="1" fill-rule="nonzero"/><path fill="#f9cb58" d="M 219.496094 171.277344 L 173.597656 171.277344 L 173.597656 162.101562 L 219.496094 162.101562 L 219.496094 171.277344 " fill-opacity="1" fill-rule="nonzero"/><path fill="#f9cb58" d="M 214.90625 230.9375 L 173.597656 230.9375 L 173.597656 221.757812 L 214.90625 221.757812 L 214.90625 230.9375 " fill-opacity="1" fill-rule="nonzero"/><path fill="#f9cb58" d="M 228.675781 111.621094 L 173.597656 111.621094 L 173.597656 102.445312 L 228.675781 102.445312 L 228.675781 111.621094 " fill-opacity="1" fill-rule="nonzero"/><path fill="#f9cb58" d="M 242.445312 152.921875 L 173.597656 152.921875 L 173.597656 143.746094 L 242.445312 143.746094 L 242.445312 152.921875 " fill-opacity="1" fill-rule="nonzero"/><path fill="#eab849" d="M 148.355469 88.675781 L 125.40625 88.675781 C 121.617188 88.675781 118.519531 91.773438 118.519531 95.5625 L 118.519531 118.507812 C 118.519531 122.292969 121.617188 125.390625 125.40625 125.390625 L 148.355469 125.390625 C 152.140625 125.390625 155.238281 122.292969 155.238281 118.507812 L 155.238281 95.5625 C 155.238281 91.773438 152.140625 88.675781 148.355469 88.675781 " fill-opacity="1" fill-rule="nonzero"/><path fill="#f4f4f4" d="M 135.535156 114.867188 L 129.046875 108.378906 L 151.992188 85.433594 L 158.484375 91.921875 L 135.535156 114.867188 " fill-opacity="1" fill-rule="nonzero"/><path fill="#eab849" d="M 148.355469 148.335938 L 125.40625 148.335938 C 121.617188 148.335938 118.519531 151.429688 118.519531 155.21875 L 118.519531 178.164062 C 118.519531 181.949219 121.617188 185.046875 125.40625 185.046875 L 148.355469 185.046875 C 152.140625 185.046875 155.238281 181.949219 155.238281 178.164062 L 155.238281 155.21875 C 155.238281 151.429688 152.140625 148.335938 148.355469 148.335938 " fill-opacity="1" fill-rule="nonzero"/><path fill="#f4f4f4" d="M 135.535156 174.523438 L 129.046875 168.035156 L 151.992188 145.089844 L 158.484375 151.578125 L 135.535156 174.523438 " fill-opacity="1" fill-rule="nonzero"/><path fill="#eab849" d="M 148.355469 207.992188 L 125.40625 207.992188 C 121.617188 207.992188 118.519531 211.085938 118.519531 214.875 L 118.519531 237.820312 C 118.519531 241.605469 121.617188 244.703125 125.40625 244.703125 L 148.355469 244.703125 C 152.140625 244.703125 155.238281 241.605469 155.238281 237.820312 L 155.238281 214.875 C 155.238281 211.085938 152.140625 207.992188 148.355469 207.992188 " fill-opacity="1" fill-rule="nonzero"/><path fill="#eab849" d="M 295.226562 150.628906 C 291.421875 146.828125 285.261719 146.828125 281.457031 150.628906 L 173.597656 258.46875 L 173.597656 272.238281 L 187.367188 272.238281 L 295.226562 164.394531 C 299.03125 160.59375 299.03125 154.429688 295.226562 150.628906 " fill-opacity="1" fill-rule="nonzero"/><path fill="#d3a039" d="M 269.984375 162.101562 L 283.753906 175.867188 L 295.226562 164.394531 C 299.03125 160.59375 299.03125 154.429688 295.226562 150.628906 C 291.421875 146.828125 285.261719 146.828125 281.457031 150.628906 L 269.984375 162.101562 " fill-opacity="1" fill-rule="nonzero"/><g clip-path="url(#31911aeac1)"><path fill="#f9cea0" d="M 196.546875 235.523438 L 194.921875 234.714844 C 190.652344 232.578125 188.730469 227.527344 190.503906 223.097656 L 203.417969 190.816406 C 204.8125 187.332031 208.1875 185.046875 211.941406 185.046875 L 236.503906 185.046875 C 245.921875 185.046875 254.683594 189.855469 259.738281 197.796875 L 283.753906 235.523438 L 315.878906 267.648438 L 315.878906 322.714844 L 258.902344 265.746094 C 257.183594 264.027344 254.847656 263.058594 252.410156 263.058594 L 242.445312 263.058594 C 236.484375 263.058594 230.6875 261.128906 225.921875 257.550781 L 205.917969 242.550781 C 200.972656 238.84375 200.457031 231.613281 204.828125 227.242188 C 208.066406 224.003906 213.074219 223.335938 217.054688 225.609375 L 237.007812 237.007812 C 240.214844 238.839844 244.257812 238.300781 246.871094 235.6875 C 249.632812 232.925781 250.0625 228.597656 247.898438 225.34375 L 242.445312 217.167969 L 228.675781 203.402344 L 196.546875 235.523438 " fill-opacity="1" fill-rule="nonzero"/></g><path fill="#eab849" d="M 224.085938 207.992188 L 251.625 180.457031 L 265.394531 194.222656 L 237.855469 221.757812 L 224.085938 207.992188 " fill-opacity="1" fill-rule="nonzero"/><g clip-path="url(#1821a10bba)"><path fill="#f9cea0" d="M 131.578125 191.394531 L 131.347656 191.222656 C 126.664062 187.710938 120.082031 188.335938 116.144531 192.667969 L 85.199219 226.730469 C 82.378906 229.839844 77.214844 227.84375 77.214844 223.648438 L 77.214844 152.921875 L 66.199219 161.183594 C 61.574219 164.648438 58.855469 170.089844 58.855469 175.867188 L 58.855469 322.714844 L 100.164062 322.714844 L 100.164062 276.039062 C 100.164062 267.726562 103.464844 259.757812 109.339844 253.882812 C 115.21875 248.003906 118.519531 240.035156 118.519531 231.722656 L 118.519531 229.671875 C 118.519531 227.523438 119.273438 225.445312 120.648438 223.796875 C 123.574219 220.285156 129.003906 213.773438 133.589844 208.28125 C 137.878906 203.136719 136.984375 195.449219 131.578125 191.394531 " fill-opacity="1" fill-rule="nonzero"/></g></svg>